<svg enable-background="new 0 0 414.904 414.904" viewBox="0 0 414.904 414.904" xmlns="http://www.w3.org/2000/svg"><path d="m387.644.451c-3.69-1.214-7.746.077-10.055 3.204l-16.418 22.242-7.029-17.654c-1.323-3.325-4.491-5.549-8.067-5.666-3.601-.127-6.884 1.897-8.421 5.128l-12.22 25.678c-1.534-.197-3.081-.296-4.637-.296-13.026 0-25.014 7.047-31.497 18.044l-48.366 1.253c-2.515.065-4.888 1.18-6.544 3.075-1.655 1.894-2.442 4.396-2.17 6.897 2.18 20.008 11.516 38.237 26.287 51.33 14.389 12.753 32.678 19.864 52.201 20.077v26.743s-219.282 18.961-220.322 19.087c-24.723 2.986-47.288-13.485-50.836-37.971-1.719-11.861 1.284-23.681 8.456-33.283 7.124-9.539 17.515-15.754 29.279-17.521l52.34-4.658c4.951-.44 8.607-4.811 8.167-9.762-.441-4.952-4.808-8.608-9.763-8.166l-52.598 4.681c-.165.015-.329.034-.493.057-16.619 2.408-31.306 11.144-41.354 24.598-10.049 13.454-14.257 30.017-11.849 46.635 4.191 28.926 27.567 50.414 55.357 53.47-2.299 4.456-4.558 9.841-6.292 16.111-4.75 17.168-6.433 44.617 11.304 79.533l-28.91 39.267c-1.474 2.002-2.054 4.524-1.602 6.968l12.539 67.985c.787 4.269 4.51 7.368 8.851 7.368h12.771c2.597 0 5.067-1.122 6.776-3.078s2.49-4.554 2.143-7.127l-6.828-50.527 83.218-57.643c.23-.159-.215.18 0 0 7.567-6.356 13.621-13.812 18.063-22.229 46.458 8.159 105.765 18.445 143.826 24.563l17.051 108.44c.689 4.377 4.46 7.602 8.891 7.602h10.507c4.971 0 9-4.029 9-9v-108.43c10.163-4.889 15.43-18.002 15.431-30.99v-257.486c-.001-3.887-2.496-7.334-6.187-8.549z"/></svg>